<svg width="242" height="50" viewBox="0 0 242 50" fill="none" xmlns="http://www.w3.org/2000/svg">
<path d="M40 0H10C4.47715 0 0 4.47715 0 10V40C0 45.5228 4.47715 50 10 50H40C45.5228 50 50 45.5228 50 40V10C50 4.47715 45.5228 0 40 0Z" fill="#3B82F6"/>
<path d="M71.3466 11.9091H76.5739V32.3636C76.5644 34.2386 76.1667 35.8532 75.3807 37.2074C74.5947 38.5521 73.4962 39.589 72.0852 40.3182C70.6837 41.0379 69.0502 41.3977 67.1847 41.3977C65.4801 41.3977 63.946 41.0947 62.5824 40.4886C61.2282 39.8731 60.1534 38.964 59.358 37.7614C58.5625 36.5587 58.1648 35.0625 58.1648 33.2727H63.4062C63.4157 34.0587 63.5862 34.7358 63.9176 35.304C64.2585 35.8722 64.7273 36.3078 65.3239 36.6108C65.9205 36.9138 66.607 37.0653 67.3835 37.0653C68.2263 37.0653 68.9413 36.8902 69.5284 36.5398C70.1155 36.1799 70.5606 35.6496 70.8636 34.9489C71.1761 34.2481 71.3371 33.3864 71.3466 32.3636V11.9091ZM91.581 41.4261C89.4503 41.4261 87.6037 40.9574 86.0412 40.0199C84.4787 39.0824 83.2666 37.7708 82.4048 36.0852C81.5526 34.3996 81.1264 32.4299 81.1264 30.1761C81.1264 27.9223 81.5526 25.9479 82.4048 24.2528C83.2666 22.5578 84.4787 21.2415 86.0412 20.304C87.6037 19.3665 89.4503 18.8977 91.581 18.8977C93.7116 18.8977 95.5582 19.3665 97.1207 20.304C98.6832 21.2415 99.8906 22.5578 100.743 24.2528C101.605 25.9479 102.036 27.9223 102.036 30.1761C102.036 32.4299 101.605 34.3996 100.743 36.0852C99.8906 37.7708 98.6832 39.0824 97.1207 40.0199C95.5582 40.9574 93.7116 41.4261 91.581 41.4261ZM91.6094 37.3068C92.7647 37.3068 93.7306 36.9896 94.5071 36.3551C95.2836 35.7112 95.8613 34.8494 96.2401 33.7699C96.6283 32.6903 96.8224 31.4877 96.8224 30.1619C96.8224 28.8267 96.6283 27.6193 96.2401 26.5398C95.8613 25.4508 95.2836 24.5843 94.5071 23.9403C93.7306 23.2964 92.7647 22.9744 91.6094 22.9744C90.4257 22.9744 89.4408 23.2964 88.6548 23.9403C87.8783 24.5843 87.2959 25.4508 86.9077 26.5398C86.5289 27.6193 86.3395 28.8267 86.3395 30.1619C86.3395 31.4877 86.5289 32.6903 86.9077 33.7699C87.2959 34.8494 87.8783 35.7112 88.6548 36.3551C89.4408 36.9896 90.4257 37.3068 91.6094 37.3068ZM106.627 41V11.9091H111.769V22.7898H111.982C112.247 22.2595 112.621 21.696 113.104 21.0994C113.587 20.4934 114.241 19.9773 115.065 19.5511C115.888 19.1155 116.94 18.8977 118.218 18.8977C119.904 18.8977 121.424 19.3286 122.778 20.1903C124.141 21.0426 125.221 22.3068 126.016 23.983C126.821 25.6496 127.224 27.6951 127.224 30.1193C127.224 32.5152 126.831 34.5511 126.045 36.2273C125.259 37.9034 124.189 39.1818 122.835 40.0625C121.48 40.9432 119.946 41.3835 118.232 41.3835C116.982 41.3835 115.945 41.1752 115.121 40.7585C114.298 40.3419 113.635 39.84 113.133 39.2528C112.64 38.6562 112.257 38.0928 111.982 37.5625H111.684V41H106.627ZM111.67 30.0909C111.67 31.5019 111.869 32.7377 112.266 33.7983C112.674 34.8589 113.256 35.6875 114.013 36.2841C114.781 36.8712 115.709 37.1648 116.798 37.1648C117.934 37.1648 118.886 36.8617 119.653 36.2557C120.42 35.6402 120.997 34.8021 121.386 33.7415C121.783 32.6714 121.982 31.4545 121.982 30.0909C121.982 28.7367 121.788 27.5341 121.4 26.483C121.012 25.4318 120.434 24.608 119.667 24.0114C118.9 23.4148 117.943 23.1165 116.798 23.1165C115.699 23.1165 114.766 23.4053 113.999 23.983C113.232 24.5606 112.65 25.3703 112.252 26.4119C111.864 27.4536 111.67 28.6799 111.67 30.0909ZM131.595 41V19.1818H136.737V41H131.595ZM134.18 16.0852C133.366 16.0852 132.665 15.8153 132.078 15.2756C131.491 14.7263 131.197 14.0682 131.197 13.3011C131.197 12.5246 131.491 11.8665 132.078 11.3267C132.665 10.7775 133.366 10.5028 134.18 10.5028C135.004 10.5028 135.705 10.7775 136.283 11.3267C136.87 11.8665 137.163 12.5246 137.163 13.3011C137.163 14.0682 136.87 14.7263 136.283 15.2756C135.705 15.8153 135.004 16.0852 134.18 16.0852ZM152.92 19.1818V23.1591H140.377V19.1818H152.92ZM143.474 13.9545H148.616V34.4375C148.616 35.1288 148.72 35.6591 148.928 36.0284C149.146 36.3883 149.43 36.6345 149.781 36.767C150.131 36.8996 150.519 36.9659 150.945 36.9659C151.267 36.9659 151.561 36.9422 151.826 36.8949C152.101 36.8475 152.309 36.8049 152.451 36.767L153.317 40.7869C153.043 40.8816 152.65 40.9858 152.138 41.0994C151.637 41.2131 151.021 41.2794 150.292 41.2983C149.004 41.3362 147.844 41.142 146.812 40.7159C145.78 40.2803 144.96 39.608 144.354 38.6989C143.758 37.7898 143.464 36.6534 143.474 35.2898V13.9545Z" fill="black"/>
<path d="M25.5 5L30.5516 19.1652H46.8988L33.6736 27.9197L38.7252 42.0848L25.5 33.3303L12.2748 42.0848L17.3264 27.9197L4.10123 19.1652H20.4484L25.5 5Z" fill="white"/>
<path d="M159.436 16.8764C158.349 16.8764 157.389 16.7273 156.554 16.429C155.72 16.1342 155.018 15.6992 154.45 15.1239C153.882 14.5487 153.452 13.8437 153.161 13.0092C152.87 12.1747 152.724 11.2195 152.724 10.1435C152.724 9.10298 152.872 8.17258 153.167 7.35227C153.465 6.53196 153.896 5.83594 154.461 5.2642C155.029 4.68892 155.718 4.25035 156.528 3.94851C157.341 3.64666 158.261 3.49574 159.287 3.49574C160.285 3.49574 161.158 3.65909 161.908 3.98579C162.661 4.30895 163.289 4.74751 163.793 5.30149C164.301 5.85192 164.681 6.47159 164.933 7.16051C165.189 7.84943 165.317 8.55966 165.317 9.29119C165.317 9.80611 165.292 10.3281 165.242 10.8572C165.192 11.3864 165.088 11.8729 164.928 12.3168C164.768 12.7571 164.521 13.1122 164.188 13.3821C163.857 13.652 163.41 13.7869 162.845 13.7869C162.597 13.7869 162.323 13.7479 162.025 13.6697C161.727 13.5916 161.462 13.462 161.231 13.2809C161 13.0998 160.864 12.8565 160.821 12.5511H160.757C160.672 12.7571 160.54 12.9524 160.363 13.1371C160.189 13.3217 159.96 13.4691 159.676 13.5792C159.395 13.6893 159.053 13.7372 158.648 13.723C158.186 13.7053 157.779 13.6023 157.428 13.4141C157.076 13.2223 156.782 12.9631 156.544 12.6364C156.309 12.3061 156.132 11.9244 156.011 11.4911C155.894 11.0543 155.835 10.5838 155.835 10.0795C155.835 9.60014 155.906 9.16158 156.048 8.76385C156.19 8.36612 156.387 8.01811 156.64 7.71982C156.895 7.42152 157.194 7.18359 157.534 7.00604C157.879 6.82493 158.25 6.71307 158.648 6.67045C159.003 6.63494 159.326 6.65092 159.617 6.71839C159.908 6.78232 160.148 6.87997 160.336 7.01136C160.525 7.1392 160.643 7.28125 160.693 7.4375H160.757V6.84091H161.886V11.6562C161.886 11.9545 161.97 12.2173 162.137 12.4446C162.304 12.6719 162.547 12.7855 162.866 12.7855C163.229 12.7855 163.506 12.6612 163.697 12.4126C163.893 12.1641 164.026 11.7805 164.097 11.2621C164.172 10.7436 164.209 10.0795 164.209 9.26989C164.209 8.79403 164.143 8.32528 164.012 7.86364C163.884 7.39844 163.689 6.96342 163.426 6.55859C163.167 6.15376 162.838 5.79687 162.44 5.48793C162.043 5.17898 161.576 4.9375 161.039 4.76349C160.507 4.58594 159.901 4.49716 159.223 4.49716C158.388 4.49716 157.641 4.62678 156.98 4.88601C156.324 5.14169 155.764 5.51634 155.303 6.00994C154.844 6.5 154.495 7.09659 154.253 7.79972C154.015 8.49929 153.896 9.29474 153.896 10.1861C153.896 11.0916 154.015 11.896 154.253 12.5991C154.495 13.3022 154.85 13.8952 155.319 14.3782C155.791 14.8612 156.375 15.2269 157.071 15.4755C157.767 15.7276 158.57 15.8537 159.479 15.8537C159.869 15.8537 160.255 15.8164 160.635 15.7418C161.015 15.6673 161.35 15.5856 161.641 15.4968C161.933 15.408 162.142 15.3423 162.27 15.2997L162.568 16.2798C162.348 16.3722 162.06 16.4645 161.705 16.5568C161.354 16.6491 160.977 16.7255 160.576 16.7859C160.178 16.8462 159.798 16.8764 159.436 16.8764ZM158.818 12.6364C159.294 12.6364 159.679 12.5405 159.974 12.3487C160.269 12.157 160.484 11.8675 160.619 11.4805C160.754 11.0934 160.821 10.6051 160.821 10.0156C160.821 9.41903 160.746 8.95384 160.597 8.62003C160.448 8.28622 160.228 8.05185 159.937 7.9169C159.646 7.78196 159.287 7.71449 158.861 7.71449C158.456 7.71449 158.11 7.82102 157.822 8.03409C157.538 8.24361 157.32 8.52415 157.167 8.87571C157.018 9.22372 156.943 9.60369 156.943 10.0156C156.943 10.4702 157.004 10.8981 157.124 11.2994C157.245 11.6971 157.442 12.0202 157.716 12.2688C157.989 12.5138 158.357 12.6364 158.818 12.6364Z" fill="black"/>
</svg>
