<svg width="242" height="50" viewBox="0 0 242 50" fill="none" xmlns="http://www.w3.org/2000/svg">
<path d="M40 0H10C4.47715 0 0 4.47715 0 10V40C0 45.5228 4.47715 50 10 50H40C45.5228 50 50 45.5228 50 40V10C50 4.47715 45.5228 0 40 0Z" fill="#3B82F6"/>
<path d="M60.5227 11.9091H64.7273L74.6136 36.0568H74.9545L84.8409 11.9091H89.0455V41H85.75V18.8977H85.4659L76.375 41H73.1932L64.1023 18.8977H63.8182V41H60.5227V11.9091ZM104.518 41.4545C102.548 41.4545 100.82 40.9858 99.3331 40.0483C97.8558 39.1108 96.7005 37.7992 95.8672 36.1136C95.0433 34.428 94.6314 32.4583 94.6314 30.2045C94.6314 27.9318 95.0433 25.9479 95.8672 24.2528C96.7005 22.5578 97.8558 21.2415 99.3331 20.304C100.82 19.3665 102.548 18.8977 104.518 18.8977C106.487 18.8977 108.211 19.3665 109.688 20.304C111.175 21.2415 112.33 22.5578 113.154 24.2528C113.987 25.9479 114.404 27.9318 114.404 30.2045C114.404 32.4583 113.987 34.428 113.154 36.1136C112.33 37.7992 111.175 39.1108 109.688 40.0483C108.211 40.9858 106.487 41.4545 104.518 41.4545ZM104.518 38.4432C106.014 38.4432 107.245 38.0597 108.211 37.2926C109.177 36.5256 109.892 35.517 110.356 34.267C110.82 33.017 111.052 31.6629 111.052 30.2045C111.052 28.7462 110.82 27.3873 110.356 26.1278C109.892 24.8684 109.177 23.8504 108.211 23.0739C107.245 22.2973 106.014 21.9091 104.518 21.9091C103.022 21.9091 101.79 22.2973 100.825 23.0739C99.8587 23.8504 99.1437 24.8684 98.6797 26.1278C98.2157 27.3873 97.9837 28.7462 97.9837 30.2045C97.9837 31.6629 98.2157 33.017 98.6797 34.267C99.1437 35.517 99.8587 36.5256 100.825 37.2926C101.79 38.0597 103.022 38.4432 104.518 38.4432ZM122.874 27.875V41H119.521V19.1818H122.76V22.5909H123.044C123.555 21.483 124.332 20.5928 125.374 19.9205C126.415 19.2386 127.76 18.8977 129.408 18.8977C130.885 18.8977 132.178 19.2008 133.286 19.8068C134.393 20.4034 135.255 21.3125 135.871 22.5341C136.486 23.7462 136.794 25.2803 136.794 27.1364V41H133.442V27.3636C133.442 25.6496 132.997 24.3144 132.107 23.358C131.216 22.392 129.995 21.9091 128.442 21.9091C127.372 21.9091 126.415 22.1411 125.572 22.6051C124.739 23.0691 124.081 23.7462 123.598 24.6364C123.115 25.5265 122.874 26.6061 122.874 27.875ZM158.374 24.0682L155.363 24.9205C155.174 24.4186 154.894 23.9309 154.525 23.4574C154.165 22.9744 153.673 22.5767 153.048 22.2642C152.423 21.9517 151.622 21.7955 150.647 21.7955C149.312 21.7955 148.199 22.1032 147.309 22.7188C146.428 23.3248 145.988 24.0966 145.988 25.0341C145.988 25.8674 146.291 26.5256 146.897 27.0085C147.503 27.4915 148.45 27.8939 149.738 28.2159L152.977 29.0114C154.927 29.4848 156.381 30.2093 157.337 31.1847C158.294 32.1506 158.772 33.3958 158.772 34.9205C158.772 36.1705 158.412 37.2879 157.692 38.2727C156.982 39.2576 155.988 40.0341 154.71 40.6023C153.431 41.1705 151.944 41.4545 150.249 41.4545C148.024 41.4545 146.182 40.9716 144.724 40.0057C143.265 39.0398 142.342 37.6288 141.954 35.7727L145.136 34.9773C145.439 36.1515 146.012 37.0322 146.854 37.6193C147.707 38.2064 148.819 38.5 150.192 38.5C151.755 38.5 152.996 38.1686 153.914 37.5057C154.842 36.8333 155.306 36.0284 155.306 35.0909C155.306 34.3333 155.041 33.6989 154.511 33.1875C153.98 32.6667 153.166 32.2784 152.067 32.0227L148.431 31.1705C146.433 30.697 144.965 29.9631 144.028 28.9688C143.1 27.965 142.636 26.7102 142.636 25.2045C142.636 23.9735 142.981 22.8845 143.673 21.9375C144.373 20.9905 145.325 20.2472 146.528 19.7074C147.74 19.1676 149.113 18.8977 150.647 18.8977C152.806 18.8977 154.501 19.3712 155.732 20.3182C156.973 21.2652 157.853 22.5152 158.374 24.0682ZM173.307 19.1818V22.0227H162V19.1818H173.307ZM165.295 13.9545H168.648V34.75C168.648 35.697 168.785 36.4072 169.06 36.8807C169.344 37.3447 169.704 37.6572 170.139 37.8182C170.584 37.9697 171.053 38.0455 171.545 38.0455C171.915 38.0455 172.218 38.0265 172.455 37.9886C172.691 37.9413 172.881 37.9034 173.023 37.875L173.705 40.8864C173.477 40.9716 173.16 41.0568 172.753 41.142C172.346 41.2367 171.83 41.2841 171.205 41.2841C170.258 41.2841 169.33 41.0805 168.42 40.6733C167.521 40.2661 166.773 39.6458 166.176 38.8125C165.589 37.9792 165.295 36.928 165.295 35.6591V13.9545ZM187.263 41.4545C185.161 41.4545 183.347 40.9905 181.822 40.0625C180.307 39.125 179.138 37.8182 178.314 36.142C177.5 34.4564 177.092 32.4962 177.092 30.2614C177.092 28.0265 177.5 26.0568 178.314 24.3523C179.138 22.6383 180.284 21.303 181.751 20.3466C183.229 19.3807 184.952 18.8977 186.922 18.8977C188.058 18.8977 189.18 19.0871 190.288 19.4659C191.396 19.8447 192.405 20.4602 193.314 21.3125C194.223 22.1553 194.947 23.2727 195.487 24.6648C196.027 26.0568 196.297 27.7708 196.297 29.8068V31.2273H179.479V28.3295H192.888C192.888 27.0985 192.642 26 192.149 25.0341C191.666 24.0682 190.975 23.3059 190.075 22.7472C189.185 22.1884 188.134 21.9091 186.922 21.9091C185.587 21.9091 184.431 22.2405 183.456 22.9034C182.49 23.5568 181.747 24.4091 181.226 25.4602C180.705 26.5114 180.445 27.6383 180.445 28.8409V30.7727C180.445 32.4205 180.729 33.8172 181.297 34.9631C181.875 36.0994 182.675 36.9659 183.697 37.5625C184.72 38.1496 185.909 38.4432 187.263 38.4432C188.143 38.4432 188.939 38.3201 189.649 38.0739C190.369 37.8182 190.989 37.4394 191.51 36.9375C192.031 36.4261 192.433 35.7917 192.717 35.0341L195.956 35.9432C195.615 37.0417 195.042 38.0076 194.237 38.8409C193.432 39.6648 192.438 40.3087 191.254 40.7727C190.071 41.2273 188.74 41.4545 187.263 41.4545ZM201.396 41V19.1818H204.635V22.4773H204.862C205.26 21.3977 205.98 20.5218 207.021 19.8494C208.063 19.1771 209.237 18.8409 210.544 18.8409C210.79 18.8409 211.098 18.8456 211.467 18.8551C211.837 18.8646 212.116 18.8788 212.305 18.8977V22.3068C212.192 22.2784 211.931 22.2358 211.524 22.179C211.126 22.1127 210.705 22.0795 210.26 22.0795C209.199 22.0795 208.252 22.3021 207.419 22.7472C206.595 23.1828 205.942 23.7888 205.459 24.5653C204.985 25.3324 204.749 26.2083 204.749 27.1932V41H201.396Z" fill="black"/>
<path d="M218.398 11.2727H219.455V17.5114C219.455 18.0682 219.352 18.5412 219.148 18.9304C218.943 19.3196 218.655 19.6151 218.283 19.8168C217.911 20.0185 217.472 20.1193 216.966 20.1193C216.489 20.1193 216.064 20.0327 215.692 19.8594C215.32 19.6832 215.027 19.4332 214.814 19.1094C214.601 18.7855 214.494 18.4006 214.494 17.9545H215.534C215.534 18.2017 215.595 18.4176 215.717 18.6023C215.842 18.7841 216.013 18.9261 216.229 19.0284C216.445 19.1307 216.69 19.1818 216.966 19.1818C217.27 19.1818 217.528 19.1179 217.741 18.9901C217.955 18.8622 218.116 18.6747 218.227 18.4276C218.341 18.1776 218.398 17.8722 218.398 17.5114V11.2727ZM224.095 20.1364C223.504 20.1364 222.986 19.9957 222.54 19.7145C222.097 19.4332 221.75 19.0398 221.5 18.5341C221.253 18.0284 221.129 17.4375 221.129 16.7614C221.129 16.0795 221.253 15.4844 221.5 14.9759C221.75 14.4673 222.097 14.0724 222.54 13.7912C222.986 13.5099 223.504 13.3693 224.095 13.3693C224.686 13.3693 225.203 13.5099 225.646 13.7912C226.092 14.0724 226.439 14.4673 226.686 14.9759C226.936 15.4844 227.061 16.0795 227.061 16.7614C227.061 17.4375 226.936 18.0284 226.686 18.5341C226.439 19.0398 226.092 19.4332 225.646 19.7145C225.203 19.9957 224.686 20.1364 224.095 20.1364ZM224.095 19.233C224.544 19.233 224.913 19.1179 225.203 18.8878C225.493 18.6577 225.707 18.3551 225.847 17.9801C225.986 17.6051 226.055 17.1989 226.055 16.7614C226.055 16.3239 225.986 15.9162 225.847 15.5384C225.707 15.1605 225.493 14.8551 225.203 14.6222C224.913 14.3892 224.544 14.2727 224.095 14.2727C223.646 14.2727 223.277 14.3892 222.987 14.6222C222.697 14.8551 222.483 15.1605 222.344 15.5384C222.205 15.9162 222.135 16.3239 222.135 16.7614C222.135 17.1989 222.205 17.6051 222.344 17.9801C222.483 18.3551 222.697 18.6577 222.987 18.8878C223.277 19.1179 223.646 19.233 224.095 19.233ZM228.733 20V11.2727H229.738V14.4943H229.824C229.897 14.3807 230 14.2358 230.13 14.0597C230.264 13.8807 230.454 13.7216 230.701 13.5824C230.951 13.4403 231.289 13.3693 231.716 13.3693C232.267 13.3693 232.752 13.5071 233.173 13.7827C233.593 14.0582 233.922 14.4489 234.157 14.9545C234.393 15.4602 234.511 16.0568 234.511 16.7443C234.511 17.4375 234.393 18.0384 234.157 18.5469C233.922 19.0526 233.595 19.4446 233.177 19.723C232.76 19.9986 232.278 20.1364 231.733 20.1364C231.312 20.1364 230.975 20.0668 230.723 19.9276C230.47 19.7855 230.275 19.625 230.139 19.446C230.002 19.2642 229.897 19.1136 229.824 18.9943H229.704V20H228.733ZM229.721 16.7273C229.721 17.2216 229.794 17.6577 229.939 18.0355C230.083 18.4105 230.295 18.7045 230.574 18.9176C230.852 19.1278 231.193 19.233 231.596 19.233C232.017 19.233 232.368 19.1222 232.649 18.9006C232.933 18.6761 233.146 18.375 233.288 17.9972C233.433 17.6165 233.505 17.1932 233.505 16.7273C233.505 16.267 233.434 15.8523 233.292 15.483C233.153 15.1108 232.941 14.8168 232.657 14.6009C232.376 14.3821 232.022 14.2727 231.596 14.2727C231.187 14.2727 230.843 14.3764 230.565 14.5838C230.287 14.7884 230.076 15.0753 229.934 15.4446C229.792 15.8111 229.721 16.2386 229.721 16.7273ZM240.686 14.9205L239.782 15.1761C239.725 15.0256 239.642 14.8793 239.531 14.7372C239.423 14.5923 239.275 14.473 239.088 14.3793C238.9 14.2855 238.66 14.2386 238.368 14.2386C237.967 14.2386 237.633 14.331 237.366 14.5156C237.102 14.6974 236.97 14.929 236.97 15.2102C236.97 15.4602 237.061 15.6577 237.243 15.8026C237.424 15.9474 237.708 16.0682 238.095 16.1648L239.066 16.4034C239.652 16.5455 240.088 16.7628 240.375 17.0554C240.662 17.3452 240.805 17.7187 240.805 18.1761C240.805 18.5511 240.697 18.8864 240.481 19.1818C240.268 19.4773 239.97 19.7102 239.586 19.8807C239.203 20.0511 238.757 20.1364 238.248 20.1364C237.581 20.1364 237.028 19.9915 236.591 19.7017C236.153 19.4119 235.876 18.9886 235.76 18.4318L236.714 18.1932C236.805 18.5455 236.977 18.8097 237.23 18.9858C237.485 19.1619 237.819 19.25 238.231 19.25C238.7 19.25 239.072 19.1506 239.348 18.9517C239.626 18.75 239.765 18.5085 239.765 18.2273C239.765 18 239.686 17.8097 239.527 17.6562C239.368 17.5 239.123 17.3835 238.794 17.3068L237.703 17.0511C237.103 16.9091 236.663 16.6889 236.382 16.3906C236.103 16.0895 235.964 15.7131 235.964 15.2614C235.964 14.892 236.068 14.5653 236.275 14.2812C236.485 13.9972 236.771 13.7741 237.132 13.6122C237.495 13.4503 237.907 13.3693 238.368 13.3693C239.015 13.3693 239.524 13.5114 239.893 13.7955C240.265 14.0795 240.529 14.4545 240.686 14.9205Z" fill="black"/>
<path d="M25.5 5L30.5516 19.1652H46.8988L33.6736 27.9197L38.7252 42.0848L25.5 33.3303L12.2748 42.0848L17.3264 27.9197L4.10123 19.1652H20.4484L25.5 5Z" fill="white"/>
</svg>
