<svg width="242" height="50" viewBox="0 0 242 50" fill="none" xmlns="http://www.w3.org/2000/svg">
<path d="M40 0H10C4.47715 0 0 4.47715 0 10V40C0 45.5228 4.47715 50 10 50H40C45.5228 50 50 45.5228 50 40V10C50 4.47715 45.5228 0 40 0Z" fill="#3B82F6"/>
<path d="M71.6591 11.9091H75.1818V32.7045C75.1818 34.5606 74.8409 36.1373 74.1591 37.4347C73.4773 38.732 72.5161 39.7169 71.2756 40.3892C70.035 41.0616 68.572 41.3977 66.8864 41.3977C65.2955 41.3977 63.8797 41.1089 62.6392 40.5312C61.3987 39.9441 60.4233 39.1108 59.7131 38.0312C59.0028 36.9517 58.6477 35.6686 58.6477 34.1818H62.1136C62.1136 35.0057 62.3172 35.7254 62.7244 36.3409C63.1411 36.947 63.7093 37.4205 64.429 37.7614C65.1487 38.1023 65.9678 38.2727 66.8864 38.2727C67.8996 38.2727 68.7614 38.0597 69.4716 37.6335C70.1818 37.2074 70.7216 36.5824 71.0909 35.7585C71.4697 34.9252 71.6591 33.9072 71.6591 32.7045V11.9091ZM90.6506 41.4545C88.6809 41.4545 86.9527 40.9858 85.4659 40.0483C83.9886 39.1108 82.8333 37.7992 82 36.1136C81.1761 34.428 80.7642 32.4583 80.7642 30.2045C80.7642 27.9318 81.1761 25.9479 82 24.2528C82.8333 22.5578 83.9886 21.2415 85.4659 20.304C86.9527 19.3665 88.6809 18.8977 90.6506 18.8977C92.6203 18.8977 94.3438 19.3665 95.821 20.304C97.3078 21.2415 98.4631 22.5578 99.2869 24.2528C100.12 25.9479 100.537 27.9318 100.537 30.2045C100.537 32.4583 100.12 34.428 99.2869 36.1136C98.4631 37.7992 97.3078 39.1108 95.821 40.0483C94.3438 40.9858 92.6203 41.4545 90.6506 41.4545ZM90.6506 38.4432C92.1468 38.4432 93.3778 38.0597 94.3438 37.2926C95.3097 36.5256 96.0246 35.517 96.4886 34.267C96.9527 33.017 97.1847 31.6629 97.1847 30.2045C97.1847 28.7462 96.9527 27.3873 96.4886 26.1278C96.0246 24.8684 95.3097 23.8504 94.3438 23.0739C93.3778 22.2973 92.1468 21.9091 90.6506 21.9091C89.1544 21.9091 87.9233 22.2973 86.9574 23.0739C85.9915 23.8504 85.2765 24.8684 84.8125 26.1278C84.3485 27.3873 84.1165 28.7462 84.1165 30.2045C84.1165 31.6629 84.3485 33.017 84.8125 34.267C85.2765 35.517 85.9915 36.5256 86.9574 37.2926C87.9233 38.0597 89.1544 38.4432 90.6506 38.4432ZM106.109 41V11.9091H109.461V22.6477H109.745C109.991 22.2689 110.332 21.786 110.768 21.1989C111.213 20.6023 111.847 20.072 112.671 19.608C113.504 19.1345 114.631 18.8977 116.052 18.8977C117.889 18.8977 119.508 19.357 120.91 20.2756C122.311 21.1941 123.405 22.4962 124.191 24.1818C124.977 25.8674 125.37 27.8561 125.37 30.1477C125.37 32.4583 124.977 34.4612 124.191 36.1562C123.405 37.8419 122.316 39.1487 120.924 40.0767C119.532 40.9953 117.927 41.4545 116.109 41.4545C114.707 41.4545 113.585 41.2225 112.742 40.7585C111.899 40.285 111.251 39.75 110.796 39.1534C110.342 38.5473 109.991 38.0455 109.745 37.6477H109.347V41H106.109ZM109.404 30.0909C109.404 31.7386 109.646 33.1922 110.129 34.4517C110.612 35.7017 111.317 36.6818 112.245 37.392C113.173 38.0928 114.309 38.4432 115.654 38.4432C117.056 38.4432 118.225 38.0739 119.163 37.3352C120.11 36.5871 120.82 35.5833 121.293 34.3239C121.776 33.0549 122.018 31.6439 122.018 30.0909C122.018 28.5568 121.781 27.1742 121.308 25.9432C120.844 24.7027 120.138 23.7225 119.191 23.0028C118.254 22.2737 117.075 21.9091 115.654 21.9091C114.29 21.9091 113.145 22.2547 112.217 22.946C111.289 23.6278 110.588 24.5843 110.114 25.8153C109.641 27.0369 109.404 28.4621 109.404 30.0909ZM130.498 41V19.1818H133.85V41H130.498ZM132.202 15.5455C131.549 15.5455 130.986 15.3229 130.512 14.8778C130.048 14.4328 129.816 13.8977 129.816 13.2727C129.816 12.6477 130.048 12.1127 130.512 11.6676C130.986 11.2225 131.549 11 132.202 11C132.856 11 133.415 11.2225 133.879 11.6676C134.352 12.1127 134.589 12.6477 134.589 13.2727C134.589 13.8977 134.352 14.4328 133.879 14.8778C133.415 15.3229 132.856 15.5455 132.202 15.5455ZM149.479 19.1818V22.0227H138.172V19.1818H149.479ZM141.467 13.9545H144.82V34.75C144.82 35.697 144.957 36.4072 145.232 36.8807C145.516 37.3447 145.875 37.6572 146.311 37.8182C146.756 37.9697 147.225 38.0455 147.717 38.0455C148.087 38.0455 148.39 38.0265 148.626 37.9886C148.863 37.9413 149.053 37.9034 149.195 37.875L149.876 40.8864C149.649 40.9716 149.332 41.0568 148.925 41.142C148.518 41.2367 148.001 41.2841 147.376 41.2841C146.429 41.2841 145.501 41.0805 144.592 40.6733C143.693 40.2661 142.945 39.6458 142.348 38.8125C141.761 37.9792 141.467 36.928 141.467 35.6591V13.9545Z" fill="black"/>
<path d="M25.5 5L30.5516 19.1652H46.8988L33.6736 27.9197L38.7252 42.0848L25.5 33.3303L12.2748 42.0848L17.3264 27.9197L4.10123 19.1652H20.4484L25.5 5Z" fill="white"/>
<path d="M159.436 16.8764C158.349 16.8764 157.389 16.7273 156.554 16.429C155.72 16.1342 155.018 15.6992 154.45 15.1239C153.882 14.5487 153.452 13.8437 153.161 13.0092C152.87 12.1747 152.724 11.2195 152.724 10.1435C152.724 9.10298 152.872 8.17258 153.167 7.35227C153.465 6.53196 153.896 5.83594 154.461 5.2642C155.029 4.68892 155.718 4.25035 156.528 3.94851C157.341 3.64666 158.261 3.49574 159.287 3.49574C160.285 3.49574 161.158 3.65909 161.908 3.98579C162.661 4.30895 163.289 4.74751 163.793 5.30149C164.301 5.85192 164.681 6.47159 164.933 7.16051C165.189 7.84943 165.317 8.55966 165.317 9.29119C165.317 9.80611 165.292 10.3281 165.242 10.8572C165.192 11.3864 165.088 11.8729 164.928 12.3168C164.768 12.7571 164.521 13.1122 164.188 13.3821C163.857 13.652 163.41 13.7869 162.845 13.7869C162.597 13.7869 162.323 13.7479 162.025 13.6697C161.727 13.5916 161.462 13.462 161.231 13.2809C161 13.0998 160.864 12.8565 160.821 12.5511H160.757C160.672 12.7571 160.54 12.9524 160.363 13.1371C160.189 13.3217 159.96 13.4691 159.676 13.5792C159.395 13.6893 159.053 13.7372 158.648 13.723C158.186 13.7053 157.779 13.6023 157.428 13.4141C157.076 13.2223 156.782 12.9631 156.544 12.6364C156.309 12.3061 156.132 11.9244 156.011 11.4911C155.894 11.0543 155.835 10.5838 155.835 10.0795C155.835 9.60014 155.906 9.16158 156.048 8.76385C156.19 8.36612 156.387 8.01811 156.64 7.71982C156.895 7.42152 157.194 7.18359 157.534 7.00604C157.879 6.82493 158.25 6.71307 158.648 6.67045C159.003 6.63494 159.326 6.65092 159.617 6.71839C159.908 6.78232 160.148 6.87997 160.336 7.01136C160.525 7.1392 160.643 7.28125 160.693 7.4375H160.757V6.84091H161.886V11.6562C161.886 11.9545 161.97 12.2173 162.137 12.4446C162.304 12.6719 162.547 12.7855 162.866 12.7855C163.229 12.7855 163.506 12.6612 163.697 12.4126C163.893 12.1641 164.026 11.7805 164.097 11.2621C164.172 10.7436 164.209 10.0795 164.209 9.26989C164.209 8.79403 164.143 8.32528 164.012 7.86364C163.884 7.39844 163.689 6.96342 163.426 6.55859C163.167 6.15376 162.838 5.79687 162.44 5.48793C162.043 5.17898 161.576 4.9375 161.039 4.76349C160.507 4.58594 159.901 4.49716 159.223 4.49716C158.388 4.49716 157.641 4.62678 156.98 4.88601C156.324 5.14169 155.764 5.51634 155.303 6.00994C154.844 6.5 154.495 7.09659 154.253 7.79972C154.015 8.49929 153.896 9.29474 153.896 10.1861C153.896 11.0916 154.015 11.896 154.253 12.5991C154.495 13.3022 154.85 13.8952 155.319 14.3782C155.791 14.8612 156.375 15.2269 157.071 15.4755C157.767 15.7276 158.57 15.8537 159.479 15.8537C159.869 15.8537 160.255 15.8164 160.635 15.7418C161.015 15.6673 161.35 15.5856 161.641 15.4968C161.933 15.408 162.142 15.3423 162.27 15.2997L162.568 16.2798C162.348 16.3722 162.06 16.4645 161.705 16.5568C161.354 16.6491 160.977 16.7255 160.576 16.7859C160.178 16.8462 159.798 16.8764 159.436 16.8764ZM158.818 12.6364C159.294 12.6364 159.679 12.5405 159.974 12.3487C160.269 12.157 160.484 11.8675 160.619 11.4805C160.754 11.0934 160.821 10.6051 160.821 10.0156C160.821 9.41903 160.746 8.95384 160.597 8.62003C160.448 8.28622 160.228 8.05185 159.937 7.9169C159.646 7.78196 159.287 7.71449 158.861 7.71449C158.456 7.71449 158.11 7.82102 157.822 8.03409C157.538 8.24361 157.32 8.52415 157.167 8.87571C157.018 9.22372 156.943 9.60369 156.943 10.0156C156.943 10.4702 157.004 10.8981 157.124 11.2994C157.245 11.6971 157.442 12.0202 157.716 12.2688C157.989 12.5138 158.357 12.6364 158.818 12.6364Z" fill="black"/>
</svg>
